<?xml version="1.0" standalone="no"?>
<!DOCTYPE svg PUBLIC "-//W3C//DTD SVG 20010904//EN"
 "http://www.w3.org/TR/2001/REC-SVG-20010904/DTD/svg10.dtd">
<svg version="1.0" xmlns="http://www.w3.org/2000/svg"
 width="300.000000pt" height="241.000000pt" viewBox="0 0 300.000000 241.000000"
 preserveAspectRatio="xMidYMid meet">

<g transform="translate(0.000000,241.000000) scale(0.100000,-0.100000)"
fill="#000000" stroke="none">
<path d="M115 2395 c-138 -49 -151 -235 -21 -302 38 -20 132 -20 179 0 l37 16
0 68 0 68 -35 0 c-35 0 -35 -1 -35 -43 0 -37 -4 -44 -26 -53 -41 -15 -92 6
-111 46 -43 90 40 172 129 127 l37 -19 26 27 26 27 -24 16 c-27 17 -92 37
-122 37 -11 -1 -38 -7 -60 -15z"/>
<path d="M367 2353 c15 -27 42 -73 60 -103 27 -45 33 -65 33 -112 l0 -58 45 0
45 0 0 61 c0 57 4 68 60 160 l59 99 -42 0 c-42 0 -44 -1 -78 -60 -18 -33 -37
-60 -41 -60 -4 0 -23 27 -43 60 -36 59 -37 60 -81 60 l-45 0 28 -47z"/>
<path d="M700 2241 l0 -161 40 0 39 0 3 82 3 83 40 -68 c51 -86 65 -85 119 6
l41 67 3 -85 3 -85 39 0 40 0 0 161 0 160 -37 -3 c-34 -3 -40 -8 -87 -87 -28
-46 -56 -84 -61 -84 -5 0 -33 38 -61 84 -47 79 -53 84 -87 87 l-37 3 0 -160z"/>
<path d="M1590 2240 l0 -160 40 0 40 0 0 80 c0 44 3 80 8 80 4 0 24 -30 45
-65 25 -43 44 -65 56 -65 12 0 33 24 62 73 l44 72 3 -87 3 -88 39 0 40 0 0 48
c0 26 -3 98 -7 160 l-6 112 -33 0 c-31 0 -36 -6 -85 -90 -28 -49 -55 -90 -58
-90 -4 0 -31 40 -61 90 -54 88 -56 90 -92 90 l-38 0 0 -160z"/>
<path d="M2040 2240 l0 -160 125 0 125 0 0 35 0 35 -85 0 -85 0 0 30 0 30 75
0 75 0 0 30 0 29 -72 3 c-73 3 -73 3 -73 31 l0 29 80 1 80 2 3 33 3 32 -125 0
-126 0 0 -160z"/>
<path d="M2350 2240 l0 -160 45 0 45 0 0 45 c0 40 2 45 23 45 16 0 34 -14 56
-45 30 -42 35 -45 77 -45 l45 0 -31 44 c-35 52 -37 62 -11 76 25 13 44 70 35
106 -16 69 -68 94 -194 94 l-90 0 0 -160z m195 56 c8 -24 6 -31 -14 -47 -13
-10 -38 -19 -57 -19 l-34 0 0 51 0 50 47 -3 c42 -3 49 -6 58 -32z"/>
<path d="M2690 2240 l0 -160 45 0 44 0 3 86 3 86 70 -86 c65 -80 73 -86 108
-86 l37 0 0 160 0 160 -45 0 -44 0 -3 -85 -3 -85 -69 85 c-65 80 -72 85 -108
85 l-38 0 0 -160z"/>
<path d="M1270 2210 l0 -30 65 0 65 0 0 30 0 30 -65 0 -65 0 0 -30z"/>
<path d="M1444 1488 l-67 -135 -146 -22 c-79 -12 -146 -23 -148 -25 -2 -2 45
-49 103 -106 l107 -102 -25 -149 c-14 -82 -24 -149 -23 -149 0 0 61 31 133 70
l133 70 135 -71 c123 -65 134 -69 130 -48 -3 13 -15 80 -27 148 l-21 124 108
108 c60 60 106 109 102 109 -11 0 -293 42 -295 44 -1 1 -31 62 -67 135 l-65
134 -67 -135z m4 -131 l-22 -67 -78 -17 c-43 -10 -78 -21 -78 -24 0 -4 22 -34
49 -67 l48 -61 -20 -70 c-12 -39 -22 -69 -24 -68 -1 2 2 32 9 67 l11 65 -87
80 -87 81 116 17 c65 9 122 14 128 10 6 -3 7 -1 3 5 -6 9 44 126 51 119 1 -2
-7 -33 -19 -70z"/>
<path d="M1330 1136 c0 -2 8 -10 18 -17 15 -13 16 -12 3 4 -13 16 -21 21 -21
13z"/>
<path d="M825 845 c-44 -19 -79 -38 -78 -42 4 -19 305 -729 311 -735 11 -11
167 59 164 74 -6 27 -306 738 -311 738 -4 -1 -42 -16 -86 -35z m141 -151 c8
-20 14 -38 12 -40 -2 -2 -30 -15 -61 -29 l-58 -25 -14 35 c-8 19 -15 37 -15
40 0 6 98 53 113 54 4 1 15 -15 23 -35z"/>
<path d="M1953 517 c-83 -199 -153 -368 -155 -375 -2 -8 29 -26 81 -48 46 -19
84 -34 86 -32 4 6 303 723 307 736 3 11 -83 55 -148 76 -18 5 -34 -27 -171
-357z m185 189 c29 -11 52 -24 52 -28 0 -5 -7 -24 -15 -43 l-14 -35 -58 25
c-31 14 -59 27 -61 29 -6 7 28 78 36 74 4 -1 31 -12 60 -22z"/>
<path d="M641 696 c-41 -18 -76 -37 -78 -42 -3 -9 243 -604 255 -615 9 -8 174
61 170 71 -66 164 -262 620 -267 619 -3 0 -39 -15 -80 -33z m117 -105 c10 -28
9 -29 -51 -55 -33 -14 -61 -25 -62 -23 -28 54 -27 56 28 81 68 32 73 31 85 -3z"/>
<path d="M2177 453 c-64 -153 -123 -294 -131 -315 l-16 -36 83 -35 c45 -19 85
-32 89 -28 14 12 258 606 254 617 -4 9 -36 24 -152 70 -6 3 -61 -117 -127
-273z m167 143 c55 -24 55 -25 45 -55 l-11 -30 -51 21 c-29 11 -57 22 -63 25
-13 5 4 63 18 63 4 0 32 -11 62 -24z"/>
<path d="M1235 649 c-60 -11 -113 -23 -117 -27 -7 -7 36 -189 47 -200 2 -2 48
4 102 14 134 25 384 23 504 -3 l87 -19 27 100 c14 54 22 103 18 107 -5 5 -62
18 -127 29 -157 27 -386 26 -541 -1z m345 -51 c0 -10 -32 -14 -118 -16 -64 -1
-159 -9 -209 -17 -110 -18 -103 -17 -103 -6 0 8 138 36 220 44 96 10 210 7
210 -5z m243 -20 c26 -5 47 -14 47 -20 0 -6 -12 -8 -27 -5 -16 3 -65 11 -110
17 -98 15 -115 36 -20 26 34 -4 83 -12 110 -18z"/>
<path d="M458 547 c-42 -18 -79 -35 -83 -39 -3 -3 7 -38 24 -76 29 -68 29 -71
11 -84 -19 -12 -18 -17 22 -111 37 -89 43 -98 63 -93 20 5 26 -1 45 -52 40
-100 29 -95 122 -55 46 20 84 36 86 38 2 2 -203 493 -209 499 -2 3 -39 -10
-81 -27z m99 -73 c-1 -1 -30 -13 -63 -27 l-62 -25 -9 22 c-9 19 -4 23 51 47
l61 26 12 -21 c6 -11 11 -22 10 -22z"/>
<path d="M2451 506 c-17 -41 -65 -154 -106 -252 -41 -98 -74 -179 -72 -180 1
-1 39 -18 85 -37 l83 -36 23 54 c13 29 27 62 30 73 5 14 15 20 32 19 22 -2 29
7 65 93 39 93 40 95 20 108 -19 13 -19 15 10 79 16 37 28 70 27 75 -3 7 -152
78 -164 78 -1 0 -16 -33 -33 -74z m140 -34 c12 -5 14 -13 8 -30 l-8 -22 -58
25 c-69 31 -66 29 -58 54 l6 20 47 -21 c26 -11 54 -23 63 -26z"/>
</g>
</svg>
